<?xml version="1.0" standalone="no"?>
<!DOCTYPE svg PUBLIC "-//W3C//DTD SVG 20010904//EN"
 "http://www.w3.org/TR/2001/REC-SVG-20010904/DTD/svg10.dtd">
<svg version="1.0" xmlns="http://www.w3.org/2000/svg"
 width="246.000000pt" height="142.000000pt" viewBox="0 0 246.000000 142.000000"
 preserveAspectRatio="xMidYMid meet">

<g transform="translate(0.000000,142.000000) scale(0.100000,-0.100000)"
fill="#000000" stroke="none">
<path d="M0 710 l0 -710 1230 0 1230 0 0 710 0 710 -1230 0 -1230 0 0 -710z
m1024 548 c28 -101 106 -405 106 -416 0 -8 -29 -12 -94 -12 l-93 0 -6 30 c-6
30 -7 30 -70 30 -64 0 -65 0 -70 -30 l-6 -30 -97 0 c-95 0 -96 0 -90 23 3 12
31 120 62 240 l57 217 143 0 143 0 15 -52z m527 36 c133 -54 133 -254 0 -308
-28 -11 -71 -16 -131 -16 l-90 0 0 -70 0 -70 -90 0 -90 0 0 240 0 240 180 0
c144 0 188 -3 221 -16z m309 -224 l0 -240 -90 0 -90 0 0 240 0 240 90 0 90 0
0 -240z m-1551 -407 c5 -21 13 -51 17 -67 8 -35 16 -22 34 52 l12 52 104 0
103 0 10 -37 c5 -21 13 -51 17 -67 8 -35 16 -22 34 52 l12 52 94 0 c52 0 94
-4 94 -9 0 -5 -23 -96 -51 -202 -27 -107 -55 -211 -60 -231 l-10 -38 -103 0
-104 0 -12 53 c-18 73 -26 86 -34 51 -4 -16 -12 -46 -17 -66 l-10 -38 -103 0
-103 0 -57 218 c-31 119 -59 227 -62 240 -6 22 -5 22 89 22 l96 0 10 -37z
m885 -15 c28 -101 106 -405 106 -416 0 -8 -29 -12 -94 -12 l-93 0 -6 30 c-6
30 -7 30 -70 30 -64 0 -65 0 -70 -30 l-6 -30 -97 0 c-95 0 -96 0 -90 23 3 12
31 120 62 240 l57 217 143 0 143 0 15 -52z m536 30 c60 -31 90 -77 90 -140 0
-59 -18 -97 -62 -132 l-33 -26 63 0 62 0 0 -80 0 -80 -85 0 c-105 0 -138 13
-210 81 l-55 52 0 -67 0 -66 -90 0 -90 0 0 240 0 240 183 0 c170 0 186 -2 227
-22z m620 -58 l0 -80 -102 -1 -103 0 40 -32 c70 -56 93 -86 100 -127 9 -56
-18 -107 -75 -137 -39 -21 -56 -23 -192 -23 l-148 0 0 80 0 80 90 0 c50 0 90
4 90 8 0 4 -13 15 -29 25 -16 9 -43 33 -60 52 -59 68 -33 177 53 216 34 15 66
19 189 19 l147 0 0 -80z"/>
<path d="M681 1088 c-29 -112 -56 -211 -59 -220 -4 -16 4 -18 76 -18 l80 0 7
30 7 31 76 -3 c72 -3 76 -4 82 -28 6 -24 10 -25 83 -28 56 -2 77 1 77 9 0 7
-21 89 -46 183 -25 94 -50 188 -55 209 l-10 37 -132 0 -132 0 -54 -202z m210
10 c26 -100 26 -98 -27 -98 -43 0 -46 2 -40 23 3 12 13 52 23 89 9 37 19 65
21 63 2 -2 12 -36 23 -77z"/>
<path d="M857 1094 c-4 -16 -9 -39 -13 -51 -5 -20 -3 -23 21 -23 26 0 27 2 20
38 -10 56 -21 70 -28 36z"/>
<path d="M1170 1070 l0 -220 75 0 75 0 0 70 0 70 104 0 c91 0 107 3 137 23
103 70 103 184 0 254 -32 22 -43 23 -212 23 l-179 0 0 -220z m304 98 c13 -19
14 -25 2 -43 -11 -16 -26 -21 -85 -23 l-71 -3 0 46 0 45 69 0 c61 0 72 -3 85
-22z"/>
<path d="M1330 1145 c0 -26 1 -26 68 -23 59 3 67 5 67 23 0 18 -8 20 -67 23
-67 3 -68 3 -68 -23z"/>
<path d="M1700 1070 l0 -220 75 0 75 0 0 220 0 220 -75 0 -75 0 0 -220z"/>
<path d="M132 663 c3 -10 30 -109 59 -220 l54 -203 91 0 91 0 25 92 25 92 24
-92 24 -92 92 0 c51 0 93 3 93 6 0 3 25 98 55 210 30 113 55 209 55 215 0 5
-35 9 -78 9 l-77 0 -25 -92 -24 -93 -24 93 -25 92 -91 0 -91 0 -24 -92 -24
-92 -25 92 -25 92 -80 0 c-71 0 -79 -2 -75 -17z"/>
<path d="M851 478 c-29 -112 -56 -211 -59 -220 -4 -16 4 -18 76 -18 l80 0 7
30 7 31 76 -3 c72 -3 76 -4 82 -28 6 -24 10 -25 83 -28 56 -2 77 1 77 9 0 7
-21 89 -46 183 -25 94 -50 188 -55 209 l-10 37 -132 0 -132 0 -54 -202z m210
10 c26 -100 26 -98 -27 -98 -43 0 -46 2 -40 23 3 12 13 52 23 89 9 37 19 65
21 63 2 -2 12 -36 23 -77z"/>
<path d="M1027 484 c-4 -16 -9 -39 -13 -51 -5 -20 -3 -23 21 -23 26 0 27 2 20
38 -10 56 -21 70 -28 36z"/>
<path d="M1340 460 l0 -220 75 0 75 0 0 77 0 77 68 -66 c37 -36 77 -71 89 -77
12 -6 60 -11 107 -11 l86 0 0 60 0 60 -53 0 c-48 0 -77 12 -77 31 0 4 15 16
33 27 90 53 86 182 -8 237 -40 24 -49 25 -218 25 l-177 0 0 -220z m304 98 c13
-19 14 -25 2 -43 -11 -16 -26 -21 -85 -23 l-71 -3 0 46 0 45 69 0 c61 0 72 -3
85 -22z"/>
<path d="M1500 535 c0 -26 1 -26 68 -23 59 3 67 5 67 23 0 18 -8 20 -67 23
-67 3 -68 3 -68 -23z"/>
<path d="M2009 657 c-19 -12 -43 -40 -53 -61 -28 -57 -9 -106 61 -161 74 -57
68 -69 -40 -73 l-87 -3 0 -59 0 -60 140 0 c153 0 181 7 219 56 25 31 27 83 7
123 -8 15 -40 46 -70 69 -78 60 -70 72 50 72 l94 0 0 60 0 60 -144 0 c-132 0
-146 -2 -177 -23z"/>
</g>
</svg>
